<mxfile host="app.diagrams.net" modified="2020-10-21T12:08:27.340Z" agent="5.0 (X11; Linux x86_64) AppleWebKit/537.36 (KHTML, like Gecko) Chrome/85.0.4183.102 Safari/537.36" etag="h2p6i5_bmPpejxFkliKj" version="13.8.1" type="github">
  <diagram id="6a731a19-8d31-9384-78a2-239565b7b9f0" name="Page-1">
    <mxGraphModel dx="2031" dy="1277" grid="1" gridSize="10" guides="1" tooltips="1" connect="1" arrows="1" fold="1" page="1" pageScale="1" pageWidth="10000" pageHeight="10000" background="#ffffff" math="0" shadow="0">
      <root>
        <mxCell id="0" />
        <mxCell id="1" parent="0" />
        <mxCell id="oHngB9T9moRxExRkDxl8-1637" value="" style="rounded=0;whiteSpace=wrap;html=1;glass=0;comic=0;fillColor=#d0cee2;strokeColor=#56517e;textOpacity=20;opacity=50;container=1;" vertex="1" parent="1">
          <mxGeometry x="1261.82" y="70" width="866.77" height="1570" as="geometry" />
        </mxCell>
        <mxCell id="oHngB9T9moRxExRkDxl8-1586" value="" style="group" vertex="1" connectable="0" parent="oHngB9T9moRxExRkDxl8-1637">
          <mxGeometry x="466.97" y="705" width="155.14999999999998" height="160" as="geometry" />
        </mxCell>
        <mxCell id="oHngB9T9moRxExRkDxl8-1587" value="" style="points=[];aspect=fixed;html=1;align=center;shadow=0;dashed=0;image;image=img/lib/allied_telesis/storage/Datacenter_Server_Storage_Unit_Large.svg;rounded=1;glass=0;comic=0;fillColor=none;" vertex="1" parent="oHngB9T9moRxExRkDxl8-1586">
          <mxGeometry width="155.15" height="160" as="geometry" />
        </mxCell>
        <mxCell id="oHngB9T9moRxExRkDxl8-1585" value="" style="html=1;dashed=0;whitespace=wrap;fillColor=#2875E2;strokeColor=#ffffff;points=[[0.005,0.63,0],[0.1,0.2,0],[0.9,0.2,0],[0.5,0,0],[0.995,0.63,0],[0.72,0.99,0],[0.5,1,0],[0.28,0.99,0]];shape=mxgraph.kubernetes.icon;prIcon=vol;rounded=1;glass=0;comic=0;" vertex="1" parent="oHngB9T9moRxExRkDxl8-1586">
          <mxGeometry x="105.14999999999998" y="82" width="50" height="48" as="geometry" />
        </mxCell>
        <mxCell id="oHngB9T9moRxExRkDxl8-1580" value="" style="group" vertex="1" connectable="0" parent="oHngB9T9moRxExRkDxl8-1637">
          <mxGeometry x="266.77" y="705" width="155.14999999999998" height="160" as="geometry" />
        </mxCell>
        <mxCell id="oHngB9T9moRxExRkDxl8-1578" value="" style="points=[];aspect=fixed;html=1;align=center;shadow=0;dashed=0;image;image=img/lib/allied_telesis/storage/Datacenter_Server_Storage_Unit_Large.svg;rounded=1;glass=0;comic=0;fillColor=none;" vertex="1" parent="oHngB9T9moRxExRkDxl8-1580">
          <mxGeometry width="155.15" height="160" as="geometry" />
        </mxCell>
        <mxCell id="oHngB9T9moRxExRkDxl8-1579" value="" style="outlineConnect=0;dashed=0;verticalLabelPosition=bottom;verticalAlign=top;align=center;html=1;shape=mxgraph.aws3.s3;fillColor=#E05243;gradientColor=none;rounded=1;glass=0;comic=0;" vertex="1" parent="oHngB9T9moRxExRkDxl8-1580">
          <mxGeometry x="102.56999999999994" y="90" width="50" height="50" as="geometry" />
        </mxCell>
        <mxCell id="oHngB9T9moRxExRkDxl8-1671" value="" style="group" vertex="1" connectable="0" parent="oHngB9T9moRxExRkDxl8-1637">
          <mxGeometry x="206.76999999999998" y="630" width="442.5999999999999" height="250" as="geometry" />
        </mxCell>
        <mxCell id="oHngB9T9moRxExRkDxl8-1589" value="" style="rounded=1;whiteSpace=wrap;html=1;glass=0;comic=0;fillColor=none;" vertex="1" parent="oHngB9T9moRxExRkDxl8-1671">
          <mxGeometry x="22.59999999999991" width="420" height="250" as="geometry" />
        </mxCell>
        <mxCell id="oHngB9T9moRxExRkDxl8-1643" value="Storage" style="text;html=1;strokeColor=none;fillColor=none;align=center;verticalAlign=middle;whiteSpace=wrap;rounded=0;glass=0;comic=0;fontSize=33;" vertex="1" parent="oHngB9T9moRxExRkDxl8-1671">
          <mxGeometry y="20" width="234.51" height="20" as="geometry" />
        </mxCell>
        <mxCell id="oHngB9T9moRxExRkDxl8-1575" value="" style="aspect=fixed;perimeter=ellipsePerimeter;html=1;align=center;shadow=0;dashed=0;spacingTop=3;image;image=img/lib/active_directory/generic_server.svg;rounded=1;glass=0;comic=0;fillColor=none;" vertex="1" parent="oHngB9T9moRxExRkDxl8-1637">
          <mxGeometry x="328.18000000000006" y="440" width="50" height="89.29" as="geometry" />
        </mxCell>
        <mxCell id="oHngB9T9moRxExRkDxl8-1576" value="" style="aspect=fixed;perimeter=ellipsePerimeter;html=1;align=center;shadow=0;dashed=0;spacingTop=3;image;image=img/lib/active_directory/generic_server.svg;rounded=1;glass=0;comic=0;fillColor=none;" vertex="1" parent="oHngB9T9moRxExRkDxl8-1637">
          <mxGeometry x="491.84000000000003" y="440" width="50" height="89.29" as="geometry" />
        </mxCell>
        <mxCell id="oHngB9T9moRxExRkDxl8-1577" value="" style="aspect=fixed;perimeter=ellipsePerimeter;html=1;align=center;shadow=0;dashed=0;spacingTop=3;image;image=img/lib/active_directory/generic_server.svg;rounded=1;glass=0;comic=0;fillColor=none;" vertex="1" parent="oHngB9T9moRxExRkDxl8-1637">
          <mxGeometry x="416.97000000000014" y="440" width="50" height="89.29" as="geometry" />
        </mxCell>
        <mxCell id="oHngB9T9moRxExRkDxl8-1593" value="" style="shape=image;html=1;verticalAlign=top;verticalLabelPosition=bottom;labelBackgroundColor=#ffffff;imageAspect=0;aspect=fixed;image=https://cdn1.iconfinder.com/data/icons/Futurosoft%20Icons%200.5.2/128x128/apps/clock.png;rounded=1;glass=0;comic=0;fillColor=none;" vertex="1" parent="oHngB9T9moRxExRkDxl8-1637">
          <mxGeometry x="348.18000000000006" y="480" width="30" height="30" as="geometry" />
        </mxCell>
        <mxCell id="oHngB9T9moRxExRkDxl8-1594" value="" style="shape=image;html=1;verticalAlign=top;verticalLabelPosition=bottom;labelBackgroundColor=#ffffff;imageAspect=0;aspect=fixed;image=https://cdn1.iconfinder.com/data/icons/Futurosoft%20Icons%200.5.2/128x128/apps/clock.png;rounded=1;glass=0;comic=0;fillColor=none;" vertex="1" parent="oHngB9T9moRxExRkDxl8-1637">
          <mxGeometry x="435.01000000000016" y="480" width="30" height="30" as="geometry" />
        </mxCell>
        <mxCell id="oHngB9T9moRxExRkDxl8-1595" value="" style="shape=image;html=1;verticalAlign=top;verticalLabelPosition=bottom;labelBackgroundColor=#ffffff;imageAspect=0;aspect=fixed;image=https://cdn1.iconfinder.com/data/icons/Futurosoft%20Icons%200.5.2/128x128/apps/clock.png;rounded=1;glass=0;comic=0;fillColor=none;" vertex="1" parent="oHngB9T9moRxExRkDxl8-1637">
          <mxGeometry x="511.84000000000003" y="480" width="30" height="30" as="geometry" />
        </mxCell>
        <mxCell id="oHngB9T9moRxExRkDxl8-1653" value="" style="edgeStyle=elbowEdgeStyle;elbow=vertical;endArrow=classic;html=1;fontSize=33;exitX=0.5;exitY=1;exitDx=0;exitDy=0;entryX=0.5;entryY=0;entryDx=0;entryDy=0;" edge="1" parent="oHngB9T9moRxExRkDxl8-1637" source="oHngB9T9moRxExRkDxl8-1575" target="oHngB9T9moRxExRkDxl8-1589">
          <mxGeometry width="50" height="50" relative="1" as="geometry">
            <mxPoint x="-361.81999999999994" y="387.5" as="sourcePoint" />
            <mxPoint x="-201.81999999999994" y="360" as="targetPoint" />
            <Array as="points">
              <mxPoint x="328.18000000000006" y="580" />
              <mxPoint x="-251.81999999999994" y="450" />
              <mxPoint x="-241.81999999999994" y="450" />
            </Array>
          </mxGeometry>
        </mxCell>
        <mxCell id="oHngB9T9moRxExRkDxl8-1658" value="" style="edgeStyle=elbowEdgeStyle;elbow=vertical;endArrow=classic;html=1;fontSize=33;entryX=0.5;entryY=0;entryDx=0;entryDy=0;exitX=0.5;exitY=1;exitDx=0;exitDy=0;" edge="1" parent="oHngB9T9moRxExRkDxl8-1637" source="oHngB9T9moRxExRkDxl8-1576" target="oHngB9T9moRxExRkDxl8-1589">
          <mxGeometry width="50" height="50" relative="1" as="geometry">
            <mxPoint x="498.6699999999994" y="499.28999999999996" as="sourcePoint" />
            <mxPoint x="428.1799999999996" y="540" as="targetPoint" />
            <Array as="points">
              <mxPoint x="528.1800000000001" y="580" />
            </Array>
          </mxGeometry>
        </mxCell>
        <mxCell id="oHngB9T9moRxExRkDxl8-1571" value="" style="verticalLabelPosition=bottom;html=1;verticalAlign=top;strokeWidth=1;align=center;outlineConnect=0;dashed=0;outlineConnect=0;shape=mxgraph.aws3d.simpleDb2;aspect=fixed;rounded=1;glass=0;" vertex="1" parent="oHngB9T9moRxExRkDxl8-1637">
          <mxGeometry x="408.17999999999984" y="80" width="83.66" height="88.78" as="geometry" />
        </mxCell>
        <mxCell id="oHngB9T9moRxExRkDxl8-1573" value="&lt;hr&gt;" style="aspect=fixed;perimeter=ellipsePerimeter;html=1;align=center;shadow=0;dashed=0;spacingTop=3;image;image=img/lib/active_directory/web_server.svg;rounded=1;glass=0;comic=0;fillColor=none;container=0;" vertex="1" parent="oHngB9T9moRxExRkDxl8-1637">
          <mxGeometry x="415.0100000000002" y="250" width="70" height="87.5" as="geometry" />
        </mxCell>
        <mxCell id="oHngB9T9moRxExRkDxl8-1642" value="" style="endArrow=classic;startArrow=classic;html=1;exitX=0.5;exitY=0;exitDx=0;exitDy=0;" edge="1" parent="oHngB9T9moRxExRkDxl8-1637" source="oHngB9T9moRxExRkDxl8-1573" target="oHngB9T9moRxExRkDxl8-1571">
          <mxGeometry width="50" height="50" relative="1" as="geometry">
            <mxPoint x="-181.81999999999994" y="300" as="sourcePoint" />
            <mxPoint x="-131.81999999999994" y="250" as="targetPoint" />
          </mxGeometry>
        </mxCell>
        <mxCell id="oHngB9T9moRxExRkDxl8-1655" value="" style="edgeStyle=elbowEdgeStyle;elbow=vertical;endArrow=classic;html=1;fontSize=33;entryX=0.5;entryY=0;entryDx=0;entryDy=0;exitX=0.25;exitY=1;exitDx=0;exitDy=0;" edge="1" parent="oHngB9T9moRxExRkDxl8-1637" source="oHngB9T9moRxExRkDxl8-1573" target="oHngB9T9moRxExRkDxl8-1576">
          <mxGeometry width="50" height="50" relative="1" as="geometry">
            <mxPoint x="-331.81999999999994" y="530" as="sourcePoint" />
            <mxPoint x="-281.81999999999994" y="480" as="targetPoint" />
            <Array as="points" />
          </mxGeometry>
        </mxCell>
        <mxCell id="oHngB9T9moRxExRkDxl8-1659" value="" style="edgeStyle=elbowEdgeStyle;elbow=vertical;endArrow=classic;html=1;fontSize=33;entryX=0.5;entryY=0;entryDx=0;entryDy=0;exitX=0.25;exitY=1;exitDx=0;exitDy=0;" edge="1" parent="oHngB9T9moRxExRkDxl8-1637" source="oHngB9T9moRxExRkDxl8-1573" target="oHngB9T9moRxExRkDxl8-1577">
          <mxGeometry width="50" height="50" relative="1" as="geometry">
            <mxPoint x="378.1799999999996" y="495" as="sourcePoint" />
            <mxPoint x="428.1799999999996" y="540" as="targetPoint" />
            <Array as="points">
              <mxPoint x="434" y="390" />
            </Array>
          </mxGeometry>
        </mxCell>
        <mxCell id="oHngB9T9moRxExRkDxl8-1657" value="" style="edgeStyle=elbowEdgeStyle;elbow=vertical;endArrow=classic;html=1;fontSize=33;exitX=0.25;exitY=1;exitDx=0;exitDy=0;entryX=0.75;entryY=0;entryDx=0;entryDy=0;" edge="1" parent="oHngB9T9moRxExRkDxl8-1637" source="oHngB9T9moRxExRkDxl8-1573" target="oHngB9T9moRxExRkDxl8-1575">
          <mxGeometry width="50" height="50" relative="1" as="geometry">
            <mxPoint x="268.6699999999994" y="499.28999999999996" as="sourcePoint" />
            <mxPoint x="428.1799999999996" y="540" as="targetPoint" />
            <Array as="points">
              <mxPoint x="398" y="390" />
              <mxPoint x="-241.81999999999994" y="460" />
              <mxPoint x="-231.81999999999994" y="460" />
            </Array>
          </mxGeometry>
        </mxCell>
        <mxCell id="oHngB9T9moRxExRkDxl8-1656" value="" style="edgeStyle=elbowEdgeStyle;elbow=vertical;endArrow=classic;html=1;fontSize=33;entryX=0.5;entryY=0;entryDx=0;entryDy=0;exitX=0.5;exitY=1;exitDx=0;exitDy=0;" edge="1" parent="oHngB9T9moRxExRkDxl8-1637" source="oHngB9T9moRxExRkDxl8-1577" target="oHngB9T9moRxExRkDxl8-1589">
          <mxGeometry width="50" height="50" relative="1" as="geometry">
            <mxPoint x="368.18000000000006" y="485" as="sourcePoint" />
            <mxPoint x="298.18000000000006" y="390" as="targetPoint" />
          </mxGeometry>
        </mxCell>
        <mxCell id="oHngB9T9moRxExRkDxl8-1638" value="&lt;h1&gt;Map Colonies OSM Stack&lt;/h1&gt;&lt;div&gt;&lt;br&gt;&lt;/div&gt;&lt;div&gt;Based on OSMseed&lt;/div&gt;" style="text;html=1;strokeColor=none;fillColor=none;spacing=5;spacingTop=-20;whiteSpace=wrap;overflow=hidden;rounded=0;glass=0;comic=0;" vertex="1" parent="oHngB9T9moRxExRkDxl8-1637">
          <mxGeometry x="18.180000000000064" y="9.999999999999986" width="330" height="120" as="geometry" />
        </mxCell>
        <mxCell id="oHngB9T9moRxExRkDxl8-1553" value="" style="shape=image;imageAspect=0;aspect=fixed;verticalLabelPosition=bottom;verticalAlign=top;rounded=1;glass=0;image=https://upload.wikimedia.org/wikipedia/commons/thumb/2/29/Postgresql_elephant.svg/1200px-Postgresql_elephant.svg.png;" vertex="1" parent="oHngB9T9moRxExRkDxl8-1637">
          <mxGeometry x="462.7599999999999" y="130" width="29.08" height="30" as="geometry" />
        </mxCell>
        <mxCell id="oHngB9T9moRxExRkDxl8-1615" value="" style="aspect=fixed;perimeter=ellipsePerimeter;html=1;align=center;shadow=0;dashed=0;spacingTop=3;image;image=img/lib/active_directory/web_server.svg;rounded=1;glass=0;comic=0;fillColor=none;" vertex="1" parent="oHngB9T9moRxExRkDxl8-1637">
          <mxGeometry x="416.96999999999986" y="1370" width="62" height="77.5" as="geometry" />
        </mxCell>
        <mxCell id="oHngB9T9moRxExRkDxl8-1614" value="" style="aspect=fixed;perimeter=ellipsePerimeter;html=1;align=center;shadow=0;dashed=0;spacingTop=3;image;image=img/lib/active_directory/web_server.svg;rounded=1;glass=0;comic=0;fillColor=none;" vertex="1" parent="oHngB9T9moRxExRkDxl8-1637">
          <mxGeometry x="286.17999999999984" y="1370" width="62" height="77.5" as="geometry" />
        </mxCell>
        <mxCell id="oHngB9T9moRxExRkDxl8-1603" value="" style="group" vertex="1" connectable="0" parent="oHngB9T9moRxExRkDxl8-1637">
          <mxGeometry x="302.52" y="1160" width="83.66000000000008" height="88.77999999999997" as="geometry" />
        </mxCell>
        <mxCell id="oHngB9T9moRxExRkDxl8-1604" value="" style="verticalLabelPosition=bottom;html=1;verticalAlign=top;strokeWidth=1;align=center;outlineConnect=0;dashed=0;outlineConnect=0;shape=mxgraph.aws3d.simpleDb2;aspect=fixed;rounded=1;glass=0;" vertex="1" parent="oHngB9T9moRxExRkDxl8-1603">
          <mxGeometry width="83.66" height="88.78" as="geometry" />
        </mxCell>
        <mxCell id="oHngB9T9moRxExRkDxl8-1605" value="" style="shape=image;imageAspect=0;aspect=fixed;verticalLabelPosition=bottom;verticalAlign=top;rounded=1;glass=0;image=https://upload.wikimedia.org/wikipedia/commons/thumb/2/29/Postgresql_elephant.svg/1200px-Postgresql_elephant.svg.png;" vertex="1" parent="oHngB9T9moRxExRkDxl8-1603">
          <mxGeometry x="54.58000000000004" y="50" width="29.08" height="30" as="geometry" />
        </mxCell>
        <mxCell id="oHngB9T9moRxExRkDxl8-1600" value="" style="group" vertex="1" connectable="0" parent="oHngB9T9moRxExRkDxl8-1637">
          <mxGeometry x="394.51999999999975" y="1160" width="83.66000000000008" height="88.77999999999997" as="geometry" />
        </mxCell>
        <mxCell id="oHngB9T9moRxExRkDxl8-1601" value="" style="verticalLabelPosition=bottom;html=1;verticalAlign=top;strokeWidth=1;align=center;outlineConnect=0;dashed=0;outlineConnect=0;shape=mxgraph.aws3d.simpleDb2;aspect=fixed;rounded=1;glass=0;" vertex="1" parent="oHngB9T9moRxExRkDxl8-1600">
          <mxGeometry width="83.66" height="88.78" as="geometry" />
        </mxCell>
        <mxCell id="oHngB9T9moRxExRkDxl8-1602" value="" style="shape=image;imageAspect=0;aspect=fixed;verticalLabelPosition=bottom;verticalAlign=top;rounded=1;glass=0;image=https://upload.wikimedia.org/wikipedia/commons/thumb/2/29/Postgresql_elephant.svg/1200px-Postgresql_elephant.svg.png;" vertex="1" parent="oHngB9T9moRxExRkDxl8-1600">
          <mxGeometry x="50" y="45.28" width="33.66" height="34.72" as="geometry" />
        </mxCell>
        <mxCell id="oHngB9T9moRxExRkDxl8-1636" value="" style="endArrow=classic;html=1;entryX=0.5;entryY=0;entryDx=0;entryDy=0;" edge="1" parent="oHngB9T9moRxExRkDxl8-1637" source="oHngB9T9moRxExRkDxl8-1601" target="oHngB9T9moRxExRkDxl8-1615">
          <mxGeometry width="50" height="50" relative="1" as="geometry">
            <mxPoint x="642.9024554410344" y="1320.0000000000002" as="sourcePoint" />
            <mxPoint x="496.5999999999997" y="1380" as="targetPoint" />
          </mxGeometry>
        </mxCell>
        <mxCell id="oHngB9T9moRxExRkDxl8-1635" value="" style="endArrow=classic;html=1;entryX=0.5;entryY=0;entryDx=0;entryDy=0;" edge="1" parent="oHngB9T9moRxExRkDxl8-1637" source="oHngB9T9moRxExRkDxl8-1604" target="oHngB9T9moRxExRkDxl8-1614">
          <mxGeometry width="50" height="50" relative="1" as="geometry">
            <mxPoint x="258.18000000000006" y="1260" as="sourcePoint" />
            <mxPoint x="314.18000000000006" y="1370" as="targetPoint" />
          </mxGeometry>
        </mxCell>
        <mxCell id="oHngB9T9moRxExRkDxl8-1606" value="" style="group" vertex="1" connectable="0" parent="1">
          <mxGeometry x="1670.2" y="1080" width="50" height="80" as="geometry" />
        </mxCell>
        <mxCell id="oHngB9T9moRxExRkDxl8-1591" value="" style="aspect=fixed;perimeter=ellipsePerimeter;html=1;align=center;shadow=0;dashed=0;spacingTop=3;image;image=img/lib/active_directory/generic_server.svg;rounded=1;glass=0;comic=0;fillColor=none;" vertex="1" parent="oHngB9T9moRxExRkDxl8-1606">
          <mxGeometry width="44.79784970321427" height="80.00000000000004" as="geometry" />
        </mxCell>
        <mxCell id="oHngB9T9moRxExRkDxl8-1597" value="" style="shape=image;html=1;verticalAlign=top;verticalLabelPosition=bottom;labelBackgroundColor=#ffffff;imageAspect=0;aspect=fixed;image=https://cdn1.iconfinder.com/data/icons/Futurosoft%20Icons%200.5.2/128x128/apps/clock.png;rounded=1;glass=0;comic=0;fillColor=none;" vertex="1" parent="oHngB9T9moRxExRkDxl8-1606">
          <mxGeometry x="20" y="44.79784970321427" width="26.87870982192856" height="26.87870982192856" as="geometry" />
        </mxCell>
        <mxCell id="oHngB9T9moRxExRkDxl8-1609" value="" style="group" vertex="1" connectable="0" parent="1">
          <mxGeometry x="1584.3500000000001" y="1080" width="50" height="80" as="geometry" />
        </mxCell>
        <mxCell id="oHngB9T9moRxExRkDxl8-1610" value="" style="aspect=fixed;perimeter=ellipsePerimeter;html=1;align=center;shadow=0;dashed=0;spacingTop=3;image;image=img/lib/active_directory/generic_server.svg;rounded=1;glass=0;comic=0;fillColor=none;" vertex="1" parent="oHngB9T9moRxExRkDxl8-1609">
          <mxGeometry width="44.79784970321427" height="80.00000000000004" as="geometry" />
        </mxCell>
        <mxCell id="oHngB9T9moRxExRkDxl8-1611" value="" style="shape=image;html=1;verticalAlign=top;verticalLabelPosition=bottom;labelBackgroundColor=#ffffff;imageAspect=0;aspect=fixed;image=https://cdn1.iconfinder.com/data/icons/Futurosoft%20Icons%200.5.2/128x128/apps/clock.png;rounded=1;glass=0;comic=0;fillColor=none;" vertex="1" parent="oHngB9T9moRxExRkDxl8-1609">
          <mxGeometry x="20" y="44.79784970321427" width="26.87870982192856" height="26.87870982192856" as="geometry" />
        </mxCell>
        <mxCell id="oHngB9T9moRxExRkDxl8-1621" value="" style="group" vertex="1" connectable="0" parent="1">
          <mxGeometry x="1750" y="1070" width="50" height="80" as="geometry" />
        </mxCell>
        <mxCell id="oHngB9T9moRxExRkDxl8-1622" value="" style="aspect=fixed;perimeter=ellipsePerimeter;html=1;align=center;shadow=0;dashed=0;spacingTop=3;image;image=img/lib/active_directory/generic_server.svg;rounded=1;glass=0;comic=0;fillColor=none;" vertex="1" parent="oHngB9T9moRxExRkDxl8-1621">
          <mxGeometry x="5.2" y="10" width="44.79784970321427" height="80.00000000000004" as="geometry" />
        </mxCell>
        <mxCell id="oHngB9T9moRxExRkDxl8-1623" value="" style="shape=image;html=1;verticalAlign=top;verticalLabelPosition=bottom;labelBackgroundColor=#ffffff;imageAspect=0;aspect=fixed;image=https://cdn1.iconfinder.com/data/icons/Futurosoft%20Icons%200.5.2/128x128/apps/clock.png;rounded=1;glass=0;comic=0;fillColor=none;" vertex="1" parent="oHngB9T9moRxExRkDxl8-1621">
          <mxGeometry x="20" y="44.79784970321427" width="26.87870982192856" height="26.87870982192856" as="geometry" />
        </mxCell>
        <mxCell id="oHngB9T9moRxExRkDxl8-1632" value="" style="endArrow=classic;html=1;exitX=1;exitY=0.5;exitDx=0;exitDy=0;entryX=1;entryY=0.5;entryDx=0;entryDy=0;" edge="1" parent="1" source="oHngB9T9moRxExRkDxl8-1622" target="oHngB9T9moRxExRkDxl8-1589">
          <mxGeometry width="50" height="50" relative="1" as="geometry">
            <mxPoint x="1870" y="930" as="sourcePoint" />
            <mxPoint x="1890" y="714" as="targetPoint" />
            <Array as="points">
              <mxPoint x="1980" y="1120" />
              <mxPoint x="1980" y="825" />
            </Array>
          </mxGeometry>
        </mxCell>
        <mxCell id="oHngB9T9moRxExRkDxl8-1661" value="" style="edgeStyle=elbowEdgeStyle;elbow=vertical;endArrow=classic;html=1;fontSize=33;entryX=0.75;entryY=0;entryDx=0;entryDy=0;exitX=0.5;exitY=1;exitDx=0;exitDy=0;" edge="1" parent="1" source="oHngB9T9moRxExRkDxl8-1589" target="oHngB9T9moRxExRkDxl8-1610">
          <mxGeometry width="50" height="50" relative="1" as="geometry">
            <mxPoint x="1510" y="950" as="sourcePoint" />
            <mxPoint x="1560" y="900" as="targetPoint" />
          </mxGeometry>
        </mxCell>
        <mxCell id="oHngB9T9moRxExRkDxl8-1662" value="" style="edgeStyle=elbowEdgeStyle;elbow=vertical;endArrow=classic;html=1;fontSize=33;entryX=0.5;entryY=0;entryDx=0;entryDy=0;exitX=0.5;exitY=1;exitDx=0;exitDy=0;" edge="1" parent="1" source="oHngB9T9moRxExRkDxl8-1589" target="oHngB9T9moRxExRkDxl8-1591">
          <mxGeometry width="50" height="50" relative="1" as="geometry">
            <mxPoint x="1693" y="990" as="sourcePoint" />
            <mxPoint x="1560" y="900" as="targetPoint" />
            <Array as="points">
              <mxPoint x="1693" y="1040" />
            </Array>
          </mxGeometry>
        </mxCell>
        <mxCell id="oHngB9T9moRxExRkDxl8-1663" value="" style="edgeStyle=elbowEdgeStyle;elbow=vertical;endArrow=classic;html=1;fontSize=33;exitX=0.5;exitY=1;exitDx=0;exitDy=0;entryX=0.75;entryY=0;entryDx=0;entryDy=0;" edge="1" parent="1" source="oHngB9T9moRxExRkDxl8-1589" target="oHngB9T9moRxExRkDxl8-1622">
          <mxGeometry width="50" height="50" relative="1" as="geometry">
            <mxPoint x="1510" y="950" as="sourcePoint" />
            <mxPoint x="1560" y="900" as="targetPoint" />
          </mxGeometry>
        </mxCell>
        <mxCell id="oHngB9T9moRxExRkDxl8-1669" value="" style="endArrow=classic;html=1;fontSize=33;exitX=0.5;exitY=1;exitDx=0;exitDy=0;" edge="1" parent="1" source="oHngB9T9moRxExRkDxl8-1610" target="oHngB9T9moRxExRkDxl8-1604">
          <mxGeometry width="50" height="50" relative="1" as="geometry">
            <mxPoint x="1330" y="1210" as="sourcePoint" />
            <mxPoint x="1380" y="1160" as="targetPoint" />
          </mxGeometry>
        </mxCell>
        <mxCell id="oHngB9T9moRxExRkDxl8-1670" value="" style="endArrow=classic;html=1;fontSize=33;exitX=0.5;exitY=1;exitDx=0;exitDy=0;" edge="1" parent="1" source="oHngB9T9moRxExRkDxl8-1591" target="oHngB9T9moRxExRkDxl8-1601">
          <mxGeometry width="50" height="50" relative="1" as="geometry">
            <mxPoint x="1330" y="1210" as="sourcePoint" />
            <mxPoint x="1380" y="1160" as="targetPoint" />
          </mxGeometry>
        </mxCell>
      </root>
    </mxGraphModel>
  </diagram>
</mxfile>
